<svg width="155" height="618" viewBox="0 0 155 618" fill="none" xmlns="http://www.w3.org/2000/svg">
<path d="M56.25 15.1154L57.1895 5.89862H66.6602V8.06952H59.1826L58.624 13.1096C59.5296 12.5764 60.5579 12.3098 61.709 12.3098C63.3932 12.3098 64.7305 12.8683 65.7207 13.9855C66.7109 15.0943 67.2061 16.5965 67.2061 18.4924C67.2061 20.3967 66.6898 21.8989 65.6572 22.9992C64.6331 24.091 63.1986 24.6369 61.3535 24.6369C59.7201 24.6369 58.387 24.1841 57.3545 23.2785C56.3219 22.3729 55.7337 21.1203 55.5898 19.5207H57.8115C57.9554 20.5786 58.332 21.3784 58.9414 21.9201C59.5508 22.4533 60.3548 22.7199 61.3535 22.7199C62.4453 22.7199 63.3001 22.3475 63.918 21.6027C64.5443 20.8579 64.8574 19.8296 64.8574 18.5178C64.8574 17.2821 64.5189 16.2918 63.8418 15.5471C63.1732 14.7938 62.2803 14.4172 61.1631 14.4172C60.139 14.4172 59.335 14.6415 58.751 15.09L58.1289 15.5978L56.25 15.1154ZM77.4893 24.383H75.1279V8.72968L70.3926 10.4689V8.33612L77.1211 5.80975H77.4893V24.383ZM84.167 9.45331C84.167 8.34458 84.5182 7.43052 85.2207 6.71112C85.9316 5.99172 86.8415 5.63202 87.9502 5.63202C89.0758 5.63202 89.9857 5.99595 90.6797 6.72382C91.3822 7.44322 91.7334 8.37844 91.7334 9.52948V10.4308C91.7334 11.548 91.3779 12.4621 90.667 13.173C89.9645 13.8755 89.0674 14.2267 87.9756 14.2267C86.8753 14.2267 85.9655 13.8755 85.2461 13.173C84.5267 12.4621 84.167 11.5184 84.167 10.342V9.45331ZM85.9189 10.4308C85.9189 11.091 86.1051 11.6369 86.4775 12.0685C86.8499 12.4917 87.3493 12.7033 87.9756 12.7033C88.5765 12.7033 89.0589 12.496 89.4229 12.0812C89.7952 11.6665 89.9814 11.0995 89.9814 10.3801V9.45331C89.9814 8.79315 89.7995 8.24725 89.4355 7.81561C89.0716 7.38397 88.5765 7.16815 87.9502 7.16815C87.3239 7.16815 86.8288 7.38397 86.4648 7.81561C86.1009 8.24725 85.9189 8.81008 85.9189 9.50409V10.4308ZM93.168 19.8508C93.168 18.742 93.5192 17.8322 94.2217 17.1213C94.9326 16.4019 95.8424 16.0422 96.9512 16.0422C98.0599 16.0422 98.9697 16.3976 99.6807 17.1086C100.392 17.8195 100.747 18.7632 100.747 19.9396V20.841C100.747 21.9497 100.392 22.8638 99.6807 23.5832C98.9782 24.2941 98.0768 24.6496 96.9766 24.6496C95.8763 24.6496 94.9665 24.2984 94.2471 23.5959C93.5277 22.8849 93.168 21.9413 93.168 20.7648V19.8508ZM94.9199 20.841C94.9199 21.5096 95.1061 22.0598 95.4785 22.4914C95.8509 22.9146 96.3503 23.1262 96.9766 23.1262C97.5859 23.1262 98.0726 22.9188 98.4365 22.5041C98.8005 22.0809 98.9824 21.5096 98.9824 20.7902V19.8508C98.9824 19.1821 98.7962 18.6363 98.4238 18.2131C98.0599 17.7899 97.569 17.5783 96.9512 17.5783C96.3503 17.5783 95.8594 17.7899 95.4785 18.2131C95.1061 18.6278 94.9199 19.1906 94.9199 19.9016V20.841ZM88.5088 22.9865L87.1758 22.1486L96.2021 7.70135L97.5352 8.53925L88.5088 22.9865Z" fill="white"/>
<path d="M43.8 32H111.8" stroke="#21B149" stroke-width="3" stroke-miterlimit="10"/>
<path d="M22.4536 566.457L25.7075 574.578L28.9614 566.457H30.6636V576.41H29.3511V572.534L29.4741 568.351L26.2065 576.41H25.2017L21.9409 568.371L22.0708 572.534V576.41H20.7583V566.457H22.4536ZM37.3491 576.41C37.2762 576.264 37.217 576.004 37.1714 575.631C36.5835 576.241 35.8817 576.547 35.0659 576.547C34.3368 576.547 33.7375 576.342 33.2681 575.932C32.8032 575.517 32.5708 574.993 32.5708 574.359C32.5708 573.589 32.8625 572.992 33.4458 572.568C34.0337 572.14 34.8586 571.926 35.9204 571.926H37.1509V571.345C37.1509 570.903 37.0187 570.552 36.7544 570.292C36.4901 570.028 36.1004 569.895 35.5854 569.895C35.1343 569.895 34.756 570.009 34.4507 570.237C34.1453 570.465 33.9927 570.741 33.9927 571.064H32.7212C32.7212 570.695 32.8511 570.34 33.1108 569.998C33.3752 569.652 33.7306 569.378 34.1772 569.178C34.6284 568.977 35.1229 568.877 35.6606 568.877C36.5129 568.877 37.1805 569.091 37.6636 569.519C38.1466 569.943 38.3973 570.529 38.4155 571.276V574.681C38.4155 575.36 38.5021 575.9 38.6753 576.301V576.41H37.3491ZM35.2505 575.446C35.647 575.446 36.0229 575.344 36.3784 575.139C36.7339 574.934 36.9914 574.667 37.1509 574.339V572.821H36.1597C34.6102 572.821 33.8354 573.275 33.8354 574.182C33.8354 574.578 33.9676 574.888 34.2319 575.111C34.4963 575.335 34.8358 575.446 35.2505 575.446ZM43.3647 575.515C43.8159 575.515 44.2101 575.378 44.5474 575.104C44.8846 574.831 45.0715 574.489 45.1079 574.079H46.3042C46.2814 574.503 46.1356 574.906 45.8667 575.289C45.5978 575.672 45.2378 575.977 44.7866 576.205C44.34 576.433 43.866 576.547 43.3647 576.547C42.3576 576.547 41.5555 576.212 40.9585 575.542C40.366 574.867 40.0698 573.947 40.0698 572.78V572.568C40.0698 571.848 40.202 571.208 40.4663 570.647C40.7306 570.087 41.1089 569.652 41.6011 569.342C42.0978 569.032 42.6834 568.877 43.3579 568.877C44.1873 568.877 44.8755 569.125 45.4224 569.622C45.9738 570.119 46.2677 570.764 46.3042 571.557H45.1079C45.0715 571.078 44.8892 570.686 44.561 570.381C44.2375 570.071 43.8364 569.916 43.3579 569.916C42.7153 569.916 42.2163 570.148 41.8608 570.613C41.5099 571.074 41.3345 571.741 41.3345 572.616V572.855C41.3345 573.708 41.5099 574.364 41.8608 574.824C42.2118 575.284 42.7131 575.515 43.3647 575.515ZM50.6929 575.515C51.144 575.515 51.5382 575.378 51.8755 575.104C52.2127 574.831 52.3996 574.489 52.436 574.079H53.6323C53.6095 574.503 53.4637 574.906 53.1948 575.289C52.9259 575.672 52.5659 575.977 52.1147 576.205C51.6681 576.433 51.1942 576.547 50.6929 576.547C49.6857 576.547 48.8836 576.212 48.2866 575.542C47.6942 574.867 47.3979 573.947 47.3979 572.78V572.568C47.3979 571.848 47.5301 571.208 47.7944 570.647C48.0588 570.087 48.437 569.652 48.9292 569.342C49.4259 569.032 50.0116 568.877 50.686 568.877C51.5155 568.877 52.2036 569.125 52.7505 569.622C53.3019 570.119 53.5959 570.764 53.6323 571.557H52.436C52.3996 571.078 52.2173 570.686 51.8892 570.381C51.5656 570.071 51.1646 569.916 50.686 569.916C50.0435 569.916 49.5444 570.148 49.189 570.613C48.8381 571.074 48.6626 571.741 48.6626 572.616V572.855C48.6626 573.708 48.8381 574.364 49.189 574.824C49.5399 575.284 50.0412 575.515 50.6929 575.515ZM59.6206 576.41C59.5477 576.264 59.4884 576.004 59.4429 575.631C58.855 576.241 58.1532 576.547 57.3374 576.547C56.6082 576.547 56.009 576.342 55.5396 575.932C55.0747 575.517 54.8423 574.993 54.8423 574.359C54.8423 573.589 55.134 572.992 55.7173 572.568C56.3052 572.14 57.13 571.926 58.1919 571.926H59.4224V571.345C59.4224 570.903 59.2902 570.552 59.0259 570.292C58.7616 570.028 58.3719 569.895 57.8569 569.895C57.4058 569.895 57.0275 570.009 56.7222 570.237C56.4168 570.465 56.2642 570.741 56.2642 571.064H54.9927C54.9927 570.695 55.1226 570.34 55.3823 569.998C55.6466 569.652 56.0021 569.378 56.4487 569.178C56.8999 568.977 57.3944 568.877 57.9321 568.877C58.7843 568.877 59.452 569.091 59.9351 569.519C60.4181 569.943 60.6688 570.529 60.687 571.276V574.681C60.687 575.36 60.7736 575.9 60.9468 576.301V576.41H59.6206ZM57.522 575.446C57.9185 575.446 58.2944 575.344 58.6499 575.139C59.0054 574.934 59.2629 574.667 59.4224 574.339V572.821H58.4312C56.8817 572.821 56.1069 573.275 56.1069 574.182C56.1069 574.578 56.2391 574.888 56.5034 575.111C56.7677 575.335 57.1073 575.446 57.522 575.446ZM68.4458 573.259H67.5229V576.41H66.2515V569.014H67.5229V572.144H68.3501L70.8384 569.014H72.3696L69.4438 572.568L72.6157 576.41H71.0093L68.4458 573.259ZM78.269 576.41C78.1961 576.264 78.1369 576.004 78.0913 575.631C77.5034 576.241 76.8016 576.547 75.9858 576.547C75.2567 576.547 74.6574 576.342 74.188 575.932C73.7231 575.517 73.4907 574.993 73.4907 574.359C73.4907 573.589 73.7824 572.992 74.3657 572.568C74.9536 572.14 75.7785 571.926 76.8403 571.926H78.0708V571.345C78.0708 570.903 77.9386 570.552 77.6743 570.292C77.41 570.028 77.0203 569.895 76.5054 569.895C76.0542 569.895 75.6759 570.009 75.3706 570.237C75.0653 570.465 74.9126 570.741 74.9126 571.064H73.6411C73.6411 570.695 73.771 570.34 74.0308 569.998C74.2951 569.652 74.6506 569.378 75.0972 569.178C75.5483 568.977 76.0428 568.877 76.5806 568.877C77.4328 568.877 78.1004 569.091 78.5835 569.519C79.0666 569.943 79.3172 570.529 79.3354 571.276V574.681C79.3354 575.36 79.422 575.9 79.5952 576.301V576.41H78.269ZM76.1704 575.446C76.5669 575.446 76.9429 575.344 77.2983 575.139C77.6538 574.934 77.9113 574.667 78.0708 574.339V572.821H77.0796C75.5301 572.821 74.7554 573.275 74.7554 574.182C74.7554 574.578 74.8875 574.888 75.1519 575.111C75.4162 575.335 75.7557 575.446 76.1704 575.446ZM87.5659 572.794C87.5659 573.92 87.3084 574.826 86.7935 575.515C86.2785 576.203 85.5812 576.547 84.7017 576.547C83.8039 576.547 83.0975 576.262 82.5825 575.692V579.254H81.3179V569.014H82.4731L82.5347 569.834C83.0496 569.196 83.7651 568.877 84.6812 568.877C85.5698 568.877 86.2716 569.212 86.7866 569.882C87.3062 570.552 87.5659 571.484 87.5659 572.678V572.794ZM86.3013 572.65C86.3013 571.816 86.1235 571.158 85.7681 570.675C85.4126 570.192 84.925 569.95 84.3052 569.95C83.5396 569.95 82.9653 570.29 82.5825 570.969V574.503C82.9608 575.177 83.5396 575.515 84.3188 575.515C84.925 575.515 85.4058 575.275 85.7612 574.797C86.1213 574.314 86.3013 573.598 86.3013 572.65ZM95.2222 576.41H93.9575V573.252H90.5601V576.41H89.2886V569.014H90.5601V572.22H93.9575V569.014H95.2222V576.41ZM101.826 576.41C101.753 576.264 101.694 576.004 101.648 575.631C101.06 576.241 100.358 576.547 99.5425 576.547C98.8133 576.547 98.214 576.342 97.7446 575.932C97.2798 575.517 97.0474 574.993 97.0474 574.359C97.0474 573.589 97.339 572.992 97.9224 572.568C98.5103 572.14 99.3351 571.926 100.397 571.926H101.627V571.345C101.627 570.903 101.495 570.552 101.231 570.292C100.967 570.028 100.577 569.895 100.062 569.895C99.6108 569.895 99.2326 570.009 98.9272 570.237C98.6219 570.465 98.4692 570.741 98.4692 571.064H97.1978C97.1978 570.695 97.3276 570.34 97.5874 569.998C97.8517 569.652 98.2072 569.378 98.6538 569.178C99.105 568.977 99.5994 568.877 100.137 568.877C100.989 568.877 101.657 569.091 102.14 569.519C102.623 569.943 102.874 570.529 102.892 571.276V574.681C102.892 575.36 102.979 575.9 103.152 576.301V576.41H101.826ZM99.7271 575.446C100.124 575.446 100.5 575.344 100.855 575.139C101.21 574.934 101.468 574.667 101.627 574.339V572.821H100.636C99.0868 572.821 98.312 573.275 98.312 574.182C98.312 574.578 98.4442 574.888 98.7085 575.111C98.9728 575.335 99.3123 575.446 99.7271 575.446ZM110.938 569.014V576.41H109.667V570.06H107.151L107 572.828C106.918 574.1 106.704 575.009 106.358 575.556C106.016 576.102 105.472 576.387 104.724 576.41H104.218V575.296L104.581 575.268C104.991 575.223 105.285 574.986 105.462 574.558C105.64 574.129 105.754 573.336 105.804 572.179L105.941 569.014H110.938ZM117.753 569.014H119.018V576.41H117.753V571.017L114.342 576.41H113.078V569.014H114.342V574.414L117.753 569.014ZM126.544 570.039H124.063V576.41H122.798V570.039H120.365V569.014H126.544V570.039ZM132.232 576.41C132.159 576.264 132.1 576.004 132.054 575.631C131.466 576.241 130.764 576.547 129.949 576.547C129.22 576.547 128.62 576.342 128.151 575.932C127.686 575.517 127.454 574.993 127.454 574.359C127.454 573.589 127.745 572.992 128.329 572.568C128.917 572.14 129.741 571.926 130.803 571.926H132.034V571.345C132.034 570.903 131.902 570.552 131.637 570.292C131.373 570.028 130.983 569.895 130.468 569.895C130.017 569.895 129.639 570.009 129.333 570.237C129.028 570.465 128.875 570.741 128.875 571.064H127.604C127.604 570.695 127.734 570.34 127.994 569.998C128.258 569.652 128.613 569.378 129.06 569.178C129.511 568.977 130.006 568.877 130.543 568.877C131.396 568.877 132.063 569.091 132.546 569.519C133.029 569.943 133.28 570.529 133.298 571.276V574.681C133.298 575.36 133.385 575.9 133.558 576.301V576.41H132.232ZM130.133 575.446C130.53 575.446 130.906 575.344 131.261 575.139C131.617 574.934 131.874 574.667 132.034 574.339V572.821H131.042C129.493 572.821 128.718 573.275 128.718 574.182C128.718 574.578 128.85 574.888 129.115 575.111C129.379 575.335 129.719 575.446 130.133 575.446Z" fill="white"/>
<path d="M68.0566 595.168C68.0566 596.091 67.8112 596.912 67.3203 597.631C66.8379 598.35 66.182 598.913 65.3525 599.32C66.3174 599.734 67.0791 600.339 67.6377 601.135C68.2048 601.931 68.4883 602.832 68.4883 603.839C68.4883 605.439 67.9466 606.712 66.8633 607.66C65.7884 608.608 64.3708 609.082 62.6104 609.082C60.833 609.082 59.4069 608.608 58.332 607.66C57.2656 606.704 56.7324 605.43 56.7324 603.839C56.7324 602.84 57.0033 601.939 57.5449 601.135C58.0951 600.331 58.8525 599.722 59.8174 599.307C58.9964 598.901 58.349 598.338 57.875 597.618C57.401 596.899 57.1641 596.082 57.1641 595.168C57.1641 593.611 57.6634 592.375 58.6621 591.461C59.6608 590.547 60.9769 590.09 62.6104 590.09C64.2354 590.09 65.5472 590.547 66.5459 591.461C67.5531 592.375 68.0566 593.611 68.0566 595.168ZM66.1396 603.788C66.1396 602.756 65.8096 601.914 65.1494 601.262C64.4977 600.61 63.6429 600.284 62.585 600.284C61.527 600.284 60.6764 600.606 60.0332 601.249C59.3984 601.892 59.0811 602.739 59.0811 603.788C59.0811 604.838 59.39 605.663 60.0078 606.264C60.6341 606.865 61.5016 607.165 62.6104 607.165C63.7106 607.165 64.5739 606.865 65.2002 606.264C65.8265 605.654 66.1396 604.829 66.1396 603.788ZM62.6104 592.02C61.6878 592.02 60.9388 592.307 60.3633 592.883C59.7962 593.45 59.5127 594.224 59.5127 595.206C59.5127 596.146 59.792 596.907 60.3506 597.491C60.9176 598.067 61.6709 598.355 62.6104 598.355C63.5498 598.355 64.2988 598.067 64.8574 597.491C65.4245 596.907 65.708 596.146 65.708 595.206C65.708 594.267 65.416 593.501 64.832 592.908C64.248 592.316 63.5075 592.02 62.6104 592.02ZM72.5254 599.561L73.4648 590.344H82.9355V592.515H75.458L74.8994 597.555C75.805 597.022 76.8333 596.755 77.9844 596.755C79.6686 596.755 81.0059 597.314 81.9961 598.431C82.9863 599.54 83.4814 601.042 83.4814 602.938C83.4814 604.842 82.9652 606.344 81.9326 607.445C80.9085 608.536 79.474 609.082 77.6289 609.082C75.9954 609.082 74.6624 608.629 73.6299 607.724C72.5973 606.818 72.0091 605.566 71.8652 603.966H74.0869C74.2308 605.024 74.6074 605.824 75.2168 606.365C75.8262 606.899 76.6302 607.165 77.6289 607.165C78.7207 607.165 79.5755 606.793 80.1934 606.048C80.8197 605.303 81.1328 604.275 81.1328 602.963C81.1328 601.727 80.7943 600.737 80.1172 599.992C79.4486 599.239 78.5557 598.862 77.4385 598.862C76.4144 598.862 75.6104 599.087 75.0264 599.535L74.4043 600.043L72.5254 599.561ZM95.2627 590.331V592.324H94.8311C93.0029 592.358 91.5472 592.9 90.4639 593.949C89.3805 594.999 88.7542 596.476 88.585 598.38C89.5583 597.263 90.887 596.704 92.5713 596.704C94.1794 596.704 95.4616 597.271 96.418 598.405C97.3828 599.54 97.8652 601.004 97.8652 602.798C97.8652 604.702 97.3447 606.226 96.3037 607.368C95.2712 608.511 93.8831 609.082 92.1396 609.082C90.3708 609.082 88.9362 608.405 87.8359 607.051C86.7357 605.688 86.1855 603.936 86.1855 601.795V600.894C86.1855 597.491 86.9092 594.893 88.3564 593.099C89.8122 591.296 91.9746 590.374 94.8438 590.331H95.2627ZM92.1777 598.659C91.3737 598.659 90.6331 598.901 89.9561 599.383C89.279 599.865 88.8092 600.471 88.5469 601.198V602.062C88.5469 603.585 88.8896 604.812 89.5752 605.743C90.2607 606.674 91.1156 607.14 92.1396 607.14C93.1976 607.14 94.027 606.751 94.6279 605.972C95.2373 605.193 95.542 604.173 95.542 602.912C95.542 601.643 95.2331 600.619 94.6152 599.84C94.0059 599.053 93.1934 598.659 92.1777 598.659Z" fill="white"/>
<path d="M43.3 616.4H111.3" stroke="#21B149" stroke-width="3" stroke-miterlimit="10"/>
<path d="M154.6 57.9H0V62.2H154.6V57.9Z" fill="#CBCBCB"/>
<path d="M145.9 65H8.6001V156.9H145.9V65Z" fill="url(#paint0_linear)"/>
<path d="M154.6 463.7H0V468H154.6V463.7Z" fill="#CBCBCB"/>
<path d="M145.9 166.5H8.6001V258.4H145.9V166.5Z" fill="url(#paint1_linear)"/>
<path d="M145.9 267.9H8.6001V359.8H145.9V267.9Z" fill="url(#paint2_linear)"/>
<path d="M145.9 369.4H8.6001V461.3H145.9V369.4Z" fill="url(#paint3_linear)"/>
<path d="M68.6001 547.4L8.6001 470.8H145.9L86.0001 547.4H68.6001Z" fill="url(#paint4_linear)"/>
<path opacity="0.5" d="M137.4 255.4H18.8999V458.7H137.4V255.4Z" fill="#21B249"/>
<path d="M154.6 260.8H0V265.1H154.6V260.8Z" fill="#CBCBCB"/>
<path d="M154.6 362.2H0V366.5H154.6V362.2Z" fill="#CBCBCB"/>
<path d="M154.6 159.3H0V163.6H154.6V159.3Z" fill="#CBCBCB"/>
<path d="M53.7 53.6H100.8" stroke="#8B959F" stroke-width="4" stroke-miterlimit="22.9256"/>
<path d="M75.8999 530.1H25.3999C19.8999 530.1 15.3999 525.6 15.3999 520.1V496.2C15.3999 490.7 19.8999 486.2 25.3999 486.2H75.8999C81.3999 486.2 85.8999 490.7 85.8999 496.2V520.1C85.8999 525.6 81.3999 530.1 75.8999 530.1Z" stroke="#21B149" stroke-width="3" stroke-miterlimit="10"/>
<defs>
<linearGradient id="paint0_linear" x1="11.9571" y1="110.956" x2="145.919" y2="110.947" gradientUnits="userSpaceOnUse">
<stop stop-color="#616166"/>
<stop offset="0.21" stop-color="#9B9B9B"/>
<stop offset="1" stop-color="#48484F"/>
</linearGradient>
<linearGradient id="paint1_linear" x1="11.9571" y1="212.4" x2="145.919" y2="212.4" gradientUnits="userSpaceOnUse">
<stop stop-color="#616166"/>
<stop offset="0.21" stop-color="#9B9B9B"/>
<stop offset="1" stop-color="#48484F"/>
</linearGradient>
<linearGradient id="paint2_linear" x1="11.9571" y1="313.849" x2="145.919" y2="313.849" gradientUnits="userSpaceOnUse">
<stop stop-color="#616166"/>
<stop offset="0.21" stop-color="#9B9B9B"/>
<stop offset="1" stop-color="#48484F"/>
</linearGradient>
<linearGradient id="paint3_linear" x1="11.9571" y1="415.297" x2="145.919" y2="415.297" gradientUnits="userSpaceOnUse">
<stop stop-color="#616166"/>
<stop offset="0.21" stop-color="#9B9B9B"/>
<stop offset="1" stop-color="#48484F"/>
</linearGradient>
<linearGradient id="paint4_linear" x1="8.6128" y1="509.104" x2="145.922" y2="509.104" gradientUnits="userSpaceOnUse">
<stop stop-color="#616166"/>
<stop offset="0.21" stop-color="#9B9B9B"/>
<stop offset="1" stop-color="#48484F"/>
</linearGradient>
</defs>
</svg>
